PathFileType	4	(X/Y/Z)	C:/Users/opensim2020/Desktop/walking_exp_matlab/subject02_walking08_straight_03.trc	
DataRate	CameraRate	NumFrames	NumMarkers	Units	OrigDataRate	OrigDataStartFrame	OrigNumFrames	
100.00	100.00	5	41	mm	100.00	2435	252	
Frame#	Time	LFHD			RFHD			LBHD			RBHD			C7			T10			CLAV			STRN			RBAK			LSHO			LUPA			LELB			LFRM			LWRA			LWRB			LFIN			RSHO			RUPA			RELB			RFRM			RWRA			RWRB			RFIN			LASI			RASI			LPSI			RPSI			LTHI			LKNE			LTIB			LANK			LHEE			LTOE			RTHI			RKNE			RTIB			RANK			RHEE			RTOE			*39			*40			
		X1	Y1	Z1	X2	Y2	Z2	X3	Y3	Z3	X4	Y4	Z4	X5	Y5	Z5	X6	Y6	Z6	X7	Y7	Z7	X8	Y8	Z8	X9	Y9	Z9	X10	Y10	Z10	X11	Y11	Z11	X12	Y12	Z12	X13	Y13	Z13	X14	Y14	Z14	X15	Y15	Z15	X16	Y16	Z16	X17	Y17	Z17	X18	Y18	Z18	X19	Y19	Z19	X20	Y20	Z20	X21	Y21	Z21	X22	Y22	Z22	X23	Y23	Z23	X24	Y24	Z24	X25	Y25	Z25	X26	Y26	Z26	X27	Y27	Z27	X28	Y28	Z28	X29	Y29	Z29	X30	Y30	Z30	X31	Y31	Z31	X32	Y32	Z32	X33	Y33	Z33	X34	Y34	Z34	X35	Y35	Z35	X36	Y36	Z36	X37	Y37	Z37	X38	Y38	Z38	X39	Y39	Z39	X40	Y40	Z40	X41	Y41	Z41	

221	2.200	-1108.17419	687.51489	1716.10620	-972.71802	636.19006	1703.01904	-1160.62390	564.18976	1645.84021	-1031.02429	501.76636	1631.86108	-1079.12170	464.38995	1514.85925	-1058.87292	413.13669	1232.79236	-1085.22937	600.82336	1441.76453	-1063.36572	655.80707	1274.17358	-1002.56183	405.27731	1339.56555	-1255.88733	527.73871	1472.08679	-1325.99731	493.15207	1268.22449	-1327.81946	475.52841	1129.58032	-1341.54614	465.80710	999.36938	-1318.14294	507.65396	866.36237	-1345.80347	459.39368	876.44263	-1348.35229	466.67175	808.95105	-890.28668	541.27991	1490.69312	-797.58075	531.34698	1300.71863	-773.31873	566.76538	1157.23315	-761.01648	628.09564	1051.86597	-787.34381	709.25372	946.55548	-752.61841	668.00702	927.90900	-753.32904	723.75531	881.96985	-1183.20764	676.72638	998.15613	-928.42566	654.59613	962.66937	-1117.46851	455.50760	1015.35352	-1003.02850	443.75241	1007.60272	-1252.13318	681.36493	691.64337	-1225.63831	691.94568	487.10370	-1232.85693	664.82483	293.79559	-1204.35852	693.15393	74.38667	-1156.18542	656.11176	46.22864	-1205.24963	851.57935	40.00922	-854.68500	533.02020	662.31500	-860.22766	508.07779	459.24808	-860.04797	367.74466	335.11053	-895.18115	242.59067	189.46722	-958.50610	193.18819	165.38622	-876.32910	314.53857	41.73230	-1060.78259	564.67303	1789.10938	-3360.26172	2845.17847	1034.03308 
222	2.210	-1110.72778	694.86340	1718.30676	-975.31885	643.75806	1705.43213	-1163.33911	572.08636	1647.12964	-1033.67944	509.67032	1632.75439	-1081.86853	472.83725	1515.98914	-1061.26514	422.12442	1234.12146	-1087.44507	609.63470	1443.55078	-1065.65332	664.79761	1275.90186	-1004.64752	413.92740	1341.10413	-1258.09741	536.67120	1473.93274	-1328.61365	504.49057	1269.75122	-1331.06055	488.63278	1130.97998	-1344.84119	480.89810	1000.63226	-1320.63586	524.24652	868.12036	-1349.08716	476.34851	877.58923	-1351.35767	484.52295	810.12384	-892.96741	549.49786	1492.63708	-800.59802	539.18359	1302.58203	-776.84839	573.18976	1158.87500	-764.04138	633.29388	1052.84802	-790.04388	713.39221	946.42566	-755.12415	671.83948	928.39777	-755.72272	727.07422	881.54456	-1185.65271	685.59064	1000.65070	-931.96826	663.56378	964.36420	-1119.93054	464.72247	1016.36206	-1005.36481	452.56897	1009.19647	-1253.73657	687.95654	692.27246	-1227.34290	694.48627	487.12830	-1232.77307	664.91718	293.71268	-1204.40869	693.07599	74.30313	-1156.36340	655.90521	46.03704	-1205.04724	851.63300	39.88722	-856.29767	546.13971	662.12036	-859.72852	525.16748	459.91730	-859.61041	384.06531	338.19800	-895.20563	255.55849	195.95274	-958.77747	205.47047	174.40631	-878.22028	321.34570	45.46769	-1063.73511	571.49957	1790.68347	-3360.31592	2845.25293	1033.98718 
223	2.220	-1113.23657	702.26752	1720.61865	-977.49408	651.26428	1707.60754	-1165.55542	580.06555	1648.41748	-1036.01367	517.74182	1633.90613	-1084.20508	481.44101	1517.40002	-1063.72925	430.98499	1235.58630	-1089.50317	618.33795	1445.38550	-1067.72778	674.01440	1277.77820	-1006.82739	422.50070	1342.67932	-1260.19678	545.66766	1475.69006	-1331.79712	515.83740	1271.37695	-1334.42688	501.70435	1132.38831	-1348.70239	496.26712	1002.20123	-1323.19897	541.19067	870.02008	-1352.36438	493.63351	878.76727	-1354.49231	502.83603	811.42273	-895.46503	557.67896	1494.50793	-803.05249	547.16272	1304.67114	-780.30414	579.51740	1160.39148	-766.86499	638.25818	1053.54456	-792.55133	717.60254	946.18585	-757.21179	675.86407	929.15192	-758.58728	730.18170	880.87317	-1187.87488	694.36072	1002.66418	-934.90558	671.88159	965.94769	-1122.48438	473.72522	1017.62457	-1007.95264	461.01044	1010.81061	-1254.95032	694.11157	692.69073	-1228.97229	696.67413	487.35028	-1233.69507	665.14307	294.00574	-1204.55408	693.01483	74.24176	-1156.58655	655.63599	46.07333	-1205.00745	851.55261	39.81929	-857.74695	559.03021	662.05084	-859.30206	542.71649	460.79315	-859.26471	400.59103	341.17850	-895.75580	269.19156	202.23434	-959.40649	218.36981	182.85120	-878.47437	330.31540	50.46421	-1066.39111	578.37384	1792.13757	-3360.31323	2845.07739	1034.23181 
224	2.230	-1115.54993	709.57288	1723.03613	-980.02234	658.51465	1709.86890	-1167.75537	587.95392	1649.82800	-1037.98816	525.85876	1635.33386	-1086.74451	490.01920	1518.80872	-1066.18213	439.76630	1237.12390	-1091.45557	627.10754	1447.24622	-1069.61804	682.76453	1279.53748	-1009.10010	431.00955	1344.43066	-1262.51050	554.74109	1477.53967	-1334.32910	527.08551	1272.82642	-1337.76929	514.83209	1133.75305	-1351.78137	511.81894	1003.17914	-1325.70605	558.46094	872.01233	-1355.59119	511.17361	879.98969	-1357.63525	521.55560	812.77655	-897.82910	565.91400	1496.35071	-805.33789	554.73688	1306.36743	-783.62439	585.34833	1161.35547	-769.39313	643.53479	1054.54712	-794.87726	721.77106	945.86121	-759.73163	679.62811	929.44525	-761.12988	733.13239	880.20660	-1189.77966	702.99365	1004.24463	-937.23090	679.83655	967.59558	-1125.20044	482.43246	1019.10236	-1010.67743	469.14157	1012.50055	-1256.24097	700.07056	693.12573	-1230.57446	698.74036	487.70413	-1235.42456	665.85596	294.50879	-1204.75330	692.91425	74.19970	-1156.69263	655.51447	46.01101	-1204.93762	851.45886	39.78810	-859.11420	571.77594	662.23901	-859.22040	559.85730	461.46106	-859.52509	417.04803	344.31146	-897.28552	283.40326	208.02135	-961.16150	232.70802	189.62546	-877.50879	341.62747	55.92476	-1068.92456	585.23010	1793.69788	-3360.15527	2845.03613	1034.24121 
225	2.240	-1117.66663	716.75433	1725.30750	-982.06122	665.85474	1712.11926	-1169.78381	595.77814	1651.26892	-1040.08740	533.78735	1636.56140	-1089.14124	498.53931	1520.25366	-1068.80566	448.39343	1238.68970	-1093.22888	635.65198	1449.06055	-1071.28711	691.34229	1281.24548	-1011.61835	439.37210	1345.98511	-1264.81604	564.10455	1479.24011	-1337.14124	538.43896	1274.37720	-1341.19873	527.93762	1135.05933	-1354.90747	527.23639	1004.56830	-1328.20313	576.03583	874.11774	-1358.66724	528.96820	881.20392	-1360.60498	540.72540	814.26093	-899.89801	573.65271	1497.94556	-807.42194	561.93835	1307.91162	-786.61359	591.85559	1162.65002	-771.94397	648.46826	1055.09167	-797.09106	725.95325	945.54553	-761.96039	683.40851	929.74683	-763.42627	736.13385	879.41412	-1191.42505	711.64319	1005.34540	-938.94604	687.21301	969.25928	-1128.05774	490.95432	1020.77844	-1013.64160	477.04495	1014.14215	-1257.16711	705.34613	693.56830	-1232.11060	700.72699	487.96664	-1237.38550	667.11230	294.99954	-1204.98035	692.85297	74.15466	-1156.86414	655.30066	46.00463	-1204.90613	851.34302	39.76974	-860.49945	584.19934	662.86432	-859.19781	576.97266	462.86206	-860.56232	433.59421	347.61856	-899.51691	298.38138	213.10463	-964.19818	248.14130	194.35576	-875.63873	355.10275	61.35157	-1071.32349	591.94464	1795.19617	-3360.31128	2845.25220	1034.19189 
